<svg width="22" height="23" viewBox="0 0 22 23" fill="none" xmlns="http://www.w3.org/2000/svg">
<path d="M10.0003 8.5H14.0003C14.2655 8.5 14.5199 8.39464 14.7074 8.20711C14.895 8.01957 15.0003 7.76522 15.0003 7.5C15.0003 7.23478 14.895 6.98043 14.7074 6.79289C14.5199 6.60536 14.2655 6.5 14.0003 6.5H12.0003V5.5C12.0003 5.23478 11.895 4.98043 11.7074 4.79289C11.5199 4.60536 11.2655 4.5 11.0003 4.5C10.7351 4.5 10.4807 4.60536 10.2932 4.79289C10.1057 4.98043 10.0003 5.23478 10.0003 5.5V6.5C9.20466 6.5 8.4416 6.81607 7.87899 7.37868C7.31638 7.94129 7.00031 8.70435 7.00031 9.5C7.00031 10.2956 7.31638 11.0587 7.87899 11.6213C8.4416 12.1839 9.20466 12.5 10.0003 12.5H12.0003C12.2655 12.5 12.5199 12.6054 12.7074 12.7929C12.895 12.9804 13.0003 13.2348 13.0003 13.5C13.0003 13.7652 12.895 14.0196 12.7074 14.2071C12.5199 14.3946 12.2655 14.5 12.0003 14.5H8.00031C7.73509 14.5 7.48074 14.6054 7.2932 14.7929C7.10567 14.9804 7.00031 15.2348 7.00031 15.5C7.00031 15.7652 7.10567 16.0196 7.2932 16.2071C7.48074 16.3946 7.73509 16.5 8.00031 16.5H10.0003V17.5C10.0003 17.7652 10.1057 18.0196 10.2932 18.2071C10.4807 18.3946 10.7351 18.5 11.0003 18.5C11.2655 18.5 11.5199 18.3946 11.7074 18.2071C11.895 18.0196 12.0003 17.7652 12.0003 17.5V16.5C12.796 16.5 13.559 16.1839 14.1216 15.6213C14.6842 15.0587 15.0003 14.2956 15.0003 13.5C15.0003 12.7044 14.6842 11.9413 14.1216 11.3787C13.559 10.8161 12.796 10.5 12.0003 10.5H10.0003C9.73509 10.5 9.48074 10.3946 9.2932 10.2071C9.10567 10.0196 9.00031 9.76522 9.00031 9.5C9.00031 9.23478 9.10567 8.98043 9.2932 8.79289C9.48074 8.60536 9.73509 8.5 10.0003 8.5ZM11.0003 0.5C8.82472 0.5 6.69798 1.14514 4.88904 2.35383C3.0801 3.56253 1.6702 5.28049 0.837635 7.29048C0.00507134 9.30047 -0.212765 11.5122 0.211672 13.646C0.636109 15.7798 1.68376 17.7398 3.22214 19.2782C4.76051 20.8166 6.72053 21.8642 8.85432 22.2886C10.9881 22.7131 13.1998 22.4952 15.2098 21.6627C17.2198 20.8301 18.9378 19.4202 20.1465 17.6113C21.3552 15.8023 22.0003 13.6756 22.0003 11.5C22.0003 8.58262 20.8414 5.78473 18.7785 3.72183C16.7156 1.65893 13.9177 0.5 11.0003 0.5ZM11.0003 20.5C9.22028 20.5 7.48022 19.9722 6.00018 18.9832C4.52014 17.9943 3.36658 16.5887 2.68539 14.9442C2.00421 13.2996 1.82598 11.49 2.17324 9.74419C2.52051 7.99836 3.37768 6.39471 4.63635 5.13604C5.89502 3.87737 7.49867 3.0202 9.2445 2.67293C10.9903 2.32567 12.7999 2.5039 14.4445 3.18508C16.089 3.86627 17.4946 5.01983 18.4835 6.49987C19.4725 7.97991 20.0003 9.71997 20.0003 11.5C20.0003 13.8869 19.0521 16.1761 17.3643 17.864C15.6764 19.5518 13.3873 20.5 11.0003 20.5Z" fill="#F1C26B"/>
</svg>
