<svg width="19" height="22" viewBox="0 0 19 22" fill="none" xmlns="http://www.w3.org/2000/svg">
<path d="M0.25 13C0.25 18 4.27944 22 9.25 22C14.2206 22 18.25 18 18.25 13C18.25 5.95235 12.7312 1.97071 10.3368 0.574887C10.0355 0.399227 9.8848 0.311397 9.7183 0.331417C9.5848 0.347457 9.4364 0.438707 9.3619 0.550527C9.2688 0.690117 9.2795 0.869487 9.3009 1.22824C9.4971 4.52075 10.0352 11 6.67857 11C4.52186 11 4.17403 9.28039 4.11793 6.56244C4.10825 6.09364 4.10342 5.85924 3.97461 5.71989C3.87106 5.60787 3.6874 5.54268 3.53639 5.56435C3.34856 5.59132 3.21098 5.75374 2.93582 6.0786C1.80088 7.4185 0.25 9.82949 0.25 13Z" fill="white"/>
</svg>
