<svg width="25" height="22" viewBox="0 0 25 22" fill="none" xmlns="http://www.w3.org/2000/svg">
<g filter="url(#filter0_d_897_4)">
<path d="M12.75 7C12.1567 7 11.5766 7.17595 11.0833 7.50559C10.5899 7.83524 10.2054 8.30377 9.97836 8.85195C9.7513 9.40013 9.69189 10.0033 9.80764 10.5853C9.9234 11.1672 10.2091 11.7018 10.6287 12.1213C11.0482 12.5409 11.5828 12.8266 12.1647 12.9424C12.7467 13.0581 13.3499 12.9987 13.8981 12.7716C14.4462 12.5446 14.9148 12.1601 15.2444 11.6667C15.5741 11.1734 15.75 10.5933 15.75 10C15.75 9.20435 15.4339 8.44129 14.8713 7.87868C14.3087 7.31607 13.5456 7 12.75 7ZM12.75 11C12.5522 11 12.3589 10.9414 12.1944 10.8315C12.03 10.7216 11.9018 10.5654 11.8261 10.3827C11.7504 10.2 11.7306 9.99889 11.7692 9.80491C11.8078 9.61093 11.903 9.43275 12.0429 9.29289C12.1827 9.15304 12.3609 9.0578 12.5549 9.01921C12.7489 8.98063 12.95 9.00043 13.1327 9.07612C13.3154 9.15181 13.4716 9.27998 13.5815 9.44443C13.6914 9.60888 13.75 9.80222 13.75 10C13.75 10.2652 13.6446 10.5196 13.4571 10.7071C13.2696 10.8946 13.0152 11 12.75 11ZM21.75 9H20.68C20.4568 7.23998 19.6549 5.60408 18.4004 4.34959C17.1459 3.0951 15.51 2.29319 13.75 2.07V1C13.75 0.734784 13.6446 0.48043 13.4571 0.292893C13.2696 0.105357 13.0152 0 12.75 0C12.4848 0 12.2304 0.105357 12.0429 0.292893C11.8554 0.48043 11.75 0.734784 11.75 1V2.07C9.98998 2.29319 8.35408 3.0951 7.09959 4.34959C5.8451 5.60408 5.04319 7.23998 4.82 9H3.75C3.48478 9 3.23043 9.10536 3.04289 9.29289C2.85536 9.48043 2.75 9.73478 2.75 10C2.75 10.2652 2.85536 10.5196 3.04289 10.7071C3.23043 10.8946 3.48478 11 3.75 11H4.82C5.04319 12.76 5.8451 14.3959 7.09959 15.6504C8.35408 16.9049 9.98998 17.7068 11.75 17.93V19C11.75 19.2652 11.8554 19.5196 12.0429 19.7071C12.2304 19.8946 12.4848 20 12.75 20C13.0152 20 13.2696 19.8946 13.4571 19.7071C13.6446 19.5196 13.75 19.2652 13.75 19V17.93C15.51 17.7068 17.1459 16.9049 18.4004 15.6504C19.6549 14.3959 20.4568 12.76 20.68 11H21.75C22.0152 11 22.2696 10.8946 22.4571 10.7071C22.6446 10.5196 22.75 10.2652 22.75 10C22.75 9.73478 22.6446 9.48043 22.4571 9.29289C22.2696 9.10536 22.0152 9 21.75 9ZM12.75 16C11.5633 16 10.4033 15.6481 9.41658 14.9888C8.42988 14.3295 7.66085 13.3925 7.20672 12.2961C6.7526 11.1997 6.63378 9.99334 6.86529 8.82946C7.0968 7.66557 7.66824 6.59647 8.50736 5.75736C9.34647 4.91824 10.4156 4.3468 11.5795 4.11529C12.7433 3.88378 13.9497 4.0026 15.0461 4.45672C16.1425 4.91085 17.0795 5.67988 17.7388 6.66658C18.3981 7.65327 18.75 8.81331 18.75 10C18.75 11.5913 18.1179 13.1174 16.9926 14.2426C15.8674 15.3679 14.3413 16 12.75 16Z" fill="#EABE6A"/>
</g>
<defs>
<filter id="filter0_d_897_4" x="-1.25" y="0" width="28" height="28" filterUnits="userSpaceOnUse" color-interpolation-filters="sRGB">
<feFlood flood-opacity="0" result="BackgroundImageFix"/>
<feColorMatrix in="SourceAlpha" type="matrix" values="0 0 0 0 0 0 0 0 0 0 0 0 0 0 0 0 0 0 127 0" result="hardAlpha"/>
<feOffset dy="4"/>
<feGaussianBlur stdDeviation="2"/>
<feComposite in2="hardAlpha" operator="out"/>
<feColorMatrix type="matrix" values="0 0 0 0 0 0 0 0 0 0 0 0 0 0 0 0 0 0 0.25 0"/>
<feBlend mode="normal" in2="BackgroundImageFix" result="effect1_dropShadow_897_4"/>
<feBlend mode="normal" in="SourceGraphic" in2="effect1_dropShadow_897_4" result="shape"/>
</filter>
</defs>
</svg>
