<svg xmlns="http://www.w3.org/2000/svg" xmlns:xlink="http://www.w3.org/1999/xlink" viewBox="0 0 336.5 312.1"><defs><style>.cls-1{fill:url(#linear-gradient);}.cls-2{fill:url(#linear-gradient-2);}.cls-3{fill:url(#linear-gradient-3);}.cls-4{fill:url(#linear-gradient-4);}.cls-5{fill:url(#linear-gradient-5);}.cls-6{fill:url(#linear-gradient-6);}.cls-7{fill:url(#linear-gradient-7);}.cls-8{fill:#fff;}</style><linearGradient id="linear-gradient" x1="214.32" y1="15.04" x2="137.86" y2="204.8" gradientUnits="userSpaceOnUse"><stop offset="0" stop-color="#ffe884"/><stop offset="0" stop-color="#f1c26b"/><stop offset="0.3" stop-color="#fadd63"/><stop offset="0.64" stop-color="#a47308"/><stop offset="1" stop-color="#ffd956"/></linearGradient><linearGradient id="linear-gradient-2" x1="181.35" y1="1.75" x2="104.88" y2="191.52" xlink:href="#linear-gradient"/><linearGradient id="linear-gradient-3" x1="170.71" y1="-2.53" x2="94.25" y2="187.23" xlink:href="#linear-gradient"/><linearGradient id="linear-gradient-4" x1="224.95" y1="19.32" x2="148.49" y2="209.09" xlink:href="#linear-gradient"/><linearGradient id="linear-gradient-5" x1="197.83" y1="8.39" x2="121.37" y2="198.16" xlink:href="#linear-gradient"/><linearGradient id="linear-gradient-6" x1="150.66" y1="-10.61" x2="74.2" y2="179.15" xlink:href="#linear-gradient"/><linearGradient id="linear-gradient-7" x1="245.01" y1="27.4" x2="168.55" y2="217.17" xlink:href="#linear-gradient"/></defs><g id="Layer_2" data-name="Layer 2"><g id="Layer_5" data-name="Layer 5"><g id="Vertical"><path class="cls-1" d="M207.2,141.1a1.9,1.9,0,0,0-2,2v9.7a5.4,5.4,0,0,1-2.4,4.5l-40.5,29.2a5.6,5.6,0,0,1-6.5,0l-40.3-29.2a5.6,5.6,0,0,1-2.3-4.5v-9.7a2,2,0,0,0-2-2H97.5a2,2,0,0,0-2,2v16.8a5.6,5.6,0,0,0,2.2,4.5l58.1,43.1a5.7,5.7,0,0,0,6.6,0l58.2-43.1a5.5,5.5,0,0,0,2.3-4.5V143.1a2,2,0,0,0-2-2Z"/><path class="cls-2" d="M111.2,67.5a2,2,0,0,0,2-2V55.8a5.6,5.6,0,0,1,2.3-4.5l40.6-29.2a5.6,5.6,0,0,1,6.5,0l40.3,29.2a5.6,5.6,0,0,1,2.3,4.5v9.7a1.9,1.9,0,0,0,1.9,2h13.8a2,2,0,0,0,2-2V48.6a5.3,5.3,0,0,0-2.3-4.4l-58-43.1a5.4,5.4,0,0,0-6.6,0L97.7,44.2a5.4,5.4,0,0,0-2.2,4.4V65.5a2,2,0,0,0,2,2Z"/><rect class="cls-3" x="122.9" y="67.5" width="17.7" height="53.22" rx="3"/><rect class="cls-4" x="177.7" y="87.8" width="17.7" height="53.22" rx="3"/><rect class="cls-5" x="150.3" y="51" width="17.7" height="106.45" rx="3"/><rect class="cls-6" x="95.5" y="77.7" width="17.7" height="53.22" rx="3"/><rect class="cls-7" x="205.2" y="77.7" width="17.7" height="53.22" rx="3"/><path class="cls-8" d="M24.3,255.8a56.7,56.7,0,0,1,9.4.8c.9.1,1.2.7,1.2,1.6V264a1.3,1.3,0,0,1-1.4,1.4,63.8,63.8,0,0,0-8.4-.6c-11.1,0-14.5,4-14.5,19.2s3.3,19.1,14.5,19.1c2.7,0,5.3-.2,8.4-.5.8-.1,1.4.3,1.4,1.4v5.7c0,.9-.3,1.5-1.2,1.7a68.3,68.3,0,0,1-9.4.7C6.9,312.1,0,304.2,0,284S6.9,255.8,24.3,255.8Z"/><path class="cls-8" d="M44,278.5v-5c0-1.1.4-1.5,1.2-1.6a76.8,76.8,0,0,1,12.9-1.3c11.4,0,16.5,4.1,16.5,15.5v23.7a1.2,1.2,0,0,1-1.3,1.3H67.2a1.2,1.2,0,0,1-1.3-1.3v-2.1c-3.5,3.2-7.6,4.4-12.3,4.4-8.7,0-13.6-4.2-13.6-12.8h0c0-8.2,4.6-12,17.5-12h.4a55.8,55.8,0,0,1,7.2.4v-1.1c0-6.2-1.7-7.7-8.8-7.7a70.9,70.9,0,0,0-10.8,1C44.6,279.8,44,279.4,44,278.5Zm11.6,26.4a17.7,17.7,0,0,0,9.5-3v-8a60.3,60.3,0,0,0-7-.4h-.3c-6.3,0-8.5,1.5-8.5,5.4v.2C49.3,303.1,51.4,304.9,55.6,304.9Z"/><path class="cls-8" d="M107.5,279.4a50.8,50.8,0,0,0-8.3-.8c-6,0-7.6,1.5-7.6,4s3,4.2,7.3,5.2l1.1.3c5.6,1.4,11.5,3.3,11.5,11.9s-4.6,12.1-16.3,12.1a56.9,56.9,0,0,1-11.5-1.2,1.4,1.4,0,0,1-1.1-1.4v-5.4c0-1,.5-1.3,1.4-1.1a62.7,62.7,0,0,0,10,1c6,0,7.9-1.4,7.9-4.1s-3.4-3.8-7.9-4.9l-1-.3c-5.3-1.3-11-3.7-11-12.3s4.9-11.8,16.5-11.8a57,57,0,0,1,9.5.9,1.3,1.3,0,0,1,1,1.5v5C109,278.8,108.8,279.5,107.5,279.4Z"/><path class="cls-8" d="M142.9,309.8V287.3c0-6.4-1.5-8.4-5.7-8.4a17.3,17.3,0,0,0-9.4,3.1v27.9a1.2,1.2,0,0,1-1.2,1.2h-7.1a1.2,1.2,0,0,1-1.3-1.2V256.5a1.2,1.2,0,0,1,1.4-1.3h6.9a1.2,1.2,0,0,1,1.3,1.3v18.2a19.5,19.5,0,0,1,12.2-4.1c8.7,0,12.4,4.8,12.4,14.2v25a1.2,1.2,0,0,1-1.3,1.3h-6.9A1.2,1.2,0,0,1,142.9,309.8Z"/><path class="cls-8" d="M174,309.8v-4.4a2.8,2.8,0,0,1,.5-1.8l16.4-27.9a82.2,82.2,0,0,1,6.7-9.9H176.7a1.2,1.2,0,0,1-1.3-1.3v-6.4a1.2,1.2,0,0,1,1.3-1.3h31.7a1.2,1.2,0,0,1,1.4,1.3V262a3.6,3.6,0,0,1-.5,1.9l-16.7,28a77.7,77.7,0,0,1-6.7,10.2h23a1.2,1.2,0,0,1,1.3,1.4v6.3a1.2,1.2,0,0,1-1.3,1.3H175.3A1.2,1.2,0,0,1,174,309.8Z"/><path class="cls-8" d="M214,291.4c0-14.2,5.5-20.8,18.6-20.8s18.6,6.6,18.6,20.8-5.5,20.7-18.6,20.7S214,305.5,214,291.4Zm18.6,12.4c6.4,0,8.8-3,8.8-12.4s-2.4-12.5-8.8-12.5-8.9,3-8.9,12.5S226.2,303.8,232.6,303.8Z"/><path class="cls-8" d="M283.8,309.8V287.2c0-6.4-1.5-8.3-5.7-8.3a16.7,16.7,0,0,0-9.3,3.1v27.9a1.2,1.2,0,0,1-1.3,1.2h-7.1a1.2,1.2,0,0,1-1.2-1.2v-37a1.2,1.2,0,0,1,1.3-1.3h6.2a1.2,1.2,0,0,1,1.3,1.3v2.3a19.7,19.7,0,0,1,12.9-4.6c8.8,0,12.5,4.8,12.5,14.2v25a1.2,1.2,0,0,1-1.4,1.3h-6.9A1.2,1.2,0,0,1,283.8,309.8Z"/><path class="cls-8" d="M319.3,270.6c12.2,0,17.2,6.6,17.2,22.5v.2c0,1.1-.5,1.6-1.7,1.6H311.1c.5,7.2,3.7,9,11,9a49.4,49.4,0,0,0,10-1.1,1.1,1.1,0,0,1,1.5,1.2v5.4a1.5,1.5,0,0,1-1.1,1.5,53.9,53.9,0,0,1-11.1,1.2c-14,0-20.1-6-20.1-20.7S306.9,270.6,319.3,270.6Zm8,17.6c-.4-7-2.7-9.4-7.9-9.4s-8,2.4-8.3,9.4Z"/></g></g></g></svg>