<svg xmlns="http://www.w3.org/2000/svg" xmlns:xlink="http://www.w3.org/1999/xlink" viewBox="0 0 559.8 208.6"><defs><style>.cls-1{fill:url(#linear-gradient);}.cls-2{fill:url(#linear-gradient-2);}.cls-3{fill:url(#linear-gradient-3);}.cls-4{fill:url(#linear-gradient-4);}.cls-5{fill:url(#linear-gradient-5);}.cls-6{fill:url(#linear-gradient-6);}.cls-7{fill:url(#linear-gradient-7);}.cls-8{fill:#232323;}</style><linearGradient id="linear-gradient" x1="122.43" y1="27.02" x2="42.9" y2="196.13" gradientUnits="userSpaceOnUse"><stop offset="0" stop-color="#ffe884"/><stop offset="0" stop-color="#f1c26b"/><stop offset="0.3" stop-color="#fadd63"/><stop offset="0.64" stop-color="#a47308"/><stop offset="1" stop-color="#ffd956"/></linearGradient><linearGradient id="linear-gradient-2" x1="85.77" y1="9.75" x2="6.23" y2="178.87" xlink:href="#linear-gradient"/><linearGradient id="linear-gradient-3" x1="78.7" y1="-5.85" x2="-5.86" y2="193.41" xlink:href="#linear-gradient"/><linearGradient id="linear-gradient-4" x1="132.49" y1="16.98" x2="47.93" y2="216.24" xlink:href="#linear-gradient"/><linearGradient id="linear-gradient-5" x1="105.59" y1="5.57" x2="21.03" y2="204.82" xlink:href="#linear-gradient"/><linearGradient id="linear-gradient-6" x1="59.13" y1="-14.15" x2="-25.43" y2="185.11" xlink:href="#linear-gradient"/><linearGradient id="linear-gradient-7" x1="152.06" y1="25.29" x2="67.5" y2="224.54" xlink:href="#linear-gradient"/></defs><g id="Layer_2" data-name="Layer 2"><g id="Layer_3" data-name="Layer 3"><g id="Horizontal"><path class="cls-1" d="M111.7,141.1a2,2,0,0,0-2,2v9.7a5.6,5.6,0,0,1-2.3,4.5L66.8,186.5a5.6,5.6,0,0,1-6.5,0L20,157.3a5.6,5.6,0,0,1-2.3-4.5v-9.7a2,2,0,0,0-2-2H2a2,2,0,0,0-2,2v16.8a5.6,5.6,0,0,0,2.2,4.5l58.1,43.1a5.7,5.7,0,0,0,6.6,0l58.3-43.1a5.6,5.6,0,0,0,2.2-4.5V143.1a2,2,0,0,0-2-2Z"/><path class="cls-2" d="M15.7,67.5a2,2,0,0,0,2-2V55.8A5.6,5.6,0,0,1,20,51.3L60.6,22.1a5.6,5.6,0,0,1,6.5,0l40.3,29.2a5.6,5.6,0,0,1,2.3,4.5v9.7a2,2,0,0,0,2,2h13.7a2,2,0,0,0,2-2V48.6a5.4,5.4,0,0,0-2.2-4.4L67.1,1.1a5.4,5.4,0,0,0-6.6,0L2.2,44.2A5.4,5.4,0,0,0,0,48.6V65.5a2,2,0,0,0,2,2Z"/><rect class="cls-3" x="27.4" y="67.5" width="17.7" height="53.22" rx="3"/><rect class="cls-4" x="82.3" y="87.8" width="17.7" height="53.22" rx="3"/><rect class="cls-5" x="54.8" y="51" width="17.7" height="106.45" rx="3"/><rect class="cls-6" y="77.7" width="17.7" height="53.22" rx="3"/><rect class="cls-7" x="109.7" y="77.7" width="17.7" height="53.22" rx="3"/><path class="cls-8" d="M196.4,71.9a64.6,64.6,0,0,1,10.9.9c1.2.2,1.4.8,1.4,1.9v6.7c0,1.2-.6,1.7-1.6,1.6a84,84,0,0,0-9.7-.6c-13,0-16.9,4.6-16.9,22.3s3.8,22.3,16.9,22.3a85.1,85.1,0,0,0,9.7-.7c1-.1,1.6.4,1.6,1.6v6.8c0,1-.2,1.7-1.4,1.9a75.5,75.5,0,0,1-10.9.8c-20.2,0-28.3-9.2-28.3-32.7S176.2,71.9,196.4,71.9Z"/><path class="cls-8" d="M219.4,98.4V92.5c0-1.3.4-1.7,1.3-1.9a91.5,91.5,0,0,1,15.1-1.4c13.3,0,19.2,4.7,19.2,18v27.5a1.4,1.4,0,0,1-1.5,1.6h-7.1a1.4,1.4,0,0,1-1.5-1.6v-2.3a21.1,21.1,0,0,1-14.4,5c-10.1,0-15.8-4.9-15.8-14.8v-.2c0-9.6,5.3-14,20.4-14h.4a75.8,75.8,0,0,1,8.4.5v-1.3c0-7.2-2-9-10.2-9a79.3,79.3,0,0,0-12.6,1.2C220,99.9,219.4,99.4,219.4,98.4ZM232.9,129a20.6,20.6,0,0,0,11-3.4v-9.3a61.4,61.4,0,0,0-8.1-.5h-.4c-7.3,0-9.9,1.7-9.9,6.3v.2C225.5,126.9,228,129,232.9,129Z"/><path class="cls-8" d="M293.2,99.3a66.9,66.9,0,0,0-9.7-.9c-6.8,0-8.8,1.8-8.8,4.7s3.5,4.9,8.6,6.1l1.2.3c6.5,1.6,13.4,3.9,13.4,13.8s-5.3,14.1-19,14.1a70.9,70.9,0,0,1-13.4-1.4,1.5,1.5,0,0,1-1.2-1.6v-6.3c0-1.2.6-1.5,1.6-1.3a62.5,62.5,0,0,0,11.6,1.1c7,0,9.2-1.6,9.2-4.6s-3.9-4.5-9.2-5.8l-1.1-.3c-6.2-1.5-12.8-4.3-12.8-14.3s5.7-13.7,19.2-13.7a56.1,56.1,0,0,1,11,1c1,.2,1.2.9,1.2,1.7v5.8C295,98.6,294.8,99.5,293.2,99.3Z"/><path class="cls-8" d="M334.4,134.7V108.5c0-7.4-1.7-9.7-6.6-9.7a20,20,0,0,0-10.9,3.6v32.4a1.4,1.4,0,0,1-1.5,1.5h-8.2a1.3,1.3,0,0,1-1.4-1.5V72.7a1.4,1.4,0,0,1,1.5-1.6h8a1.5,1.5,0,0,1,1.6,1.6V93.8a23.6,23.6,0,0,1,14.2-4.6c10.1,0,14.4,5.5,14.4,16.4v29.1a1.4,1.4,0,0,1-1.5,1.6h-8.1A1.4,1.4,0,0,1,334.4,134.7Z"/><path class="cls-8" d="M370.6,134.7v-5a3.4,3.4,0,0,1,.6-2.1l19.1-32.5a87.3,87.3,0,0,1,7.8-11.6H373.8a1.4,1.4,0,0,1-1.6-1.5V74.6a1.4,1.4,0,0,1,1.6-1.5h36.9a1.4,1.4,0,0,1,1.6,1.5v4.5a3.7,3.7,0,0,1-.6,2.2L392.3,114a88.9,88.9,0,0,1-7.8,11.8h26.7a1.4,1.4,0,0,1,1.5,1.6v7.3a1.4,1.4,0,0,1-1.5,1.6H372.1A1.4,1.4,0,0,1,370.6,134.7Z"/><path class="cls-8" d="M417.2,113.3c0-16.5,6.4-24.1,21.6-24.1s21.7,7.6,21.7,24.1-6.4,24.1-21.7,24.1S417.2,129.8,417.2,113.3Zm21.6,14.5c7.5,0,10.3-3.5,10.3-14.5s-2.8-14.5-10.3-14.5-10.3,3.5-10.3,14.5S431.4,127.8,438.8,127.8Z"/><path class="cls-8" d="M498.5,134.7V108.4c0-7.4-1.8-9.6-6.6-9.6a20.3,20.3,0,0,0-11,3.6v32.4a1.3,1.3,0,0,1-1.4,1.5h-8.2a1.4,1.4,0,0,1-1.5-1.5v-43a1.4,1.4,0,0,1,1.6-1.5h7.1a1.4,1.4,0,0,1,1.6,1.5v2.6a23.2,23.2,0,0,1,15-5.2c10.2,0,14.5,5.5,14.5,16.4v29.1a1.5,1.5,0,0,1-1.6,1.6h-8A1.4,1.4,0,0,1,498.5,134.7Z"/><path class="cls-8" d="M539.7,89.2c14.2,0,20.1,7.6,20.1,26.1v.2c0,1.3-.6,1.9-2,1.9H530.2c.5,8.3,4.4,10.5,12.8,10.5a59.1,59.1,0,0,0,11.7-1.3c1-.2,1.7.2,1.7,1.3v6.4a1.7,1.7,0,0,1-1.2,1.7,59.5,59.5,0,0,1-13,1.4c-16.3,0-23.4-7-23.4-24S525.4,89.2,539.7,89.2Zm9.3,20.5c-.4-8.3-3.1-11.1-9.2-11.1s-9.3,2.8-9.6,11.1Z"/></g></g></g></svg>