<svg xmlns="http://www.w3.org/2000/svg" xmlns:xlink="http://www.w3.org/1999/xlink" viewBox="0 0 1920 1080"><defs><style>.cls-1{fill:#fff;}.cls-2{fill:url(#linear-gradient);}.cls-3{fill:url(#linear-gradient-2);}.cls-4{fill:url(#linear-gradient-3);}.cls-5{fill:url(#linear-gradient-4);}.cls-6{fill:url(#linear-gradient-5);}.cls-7{fill:url(#linear-gradient-6);}.cls-8{fill:url(#linear-gradient-7);}.cls-9{fill:#232323;}.cls-10{fill:url(#linear-gradient-8);}.cls-11{fill:url(#linear-gradient-9);}.cls-12{fill:url(#linear-gradient-10);}.cls-13{fill:url(#linear-gradient-11);}.cls-14{fill:url(#linear-gradient-12);}.cls-15{fill:url(#linear-gradient-13);}.cls-16{fill:url(#linear-gradient-14);}.cls-17{fill:url(#linear-gradient-15);}.cls-18{fill:url(#linear-gradient-16);}.cls-19{fill:url(#linear-gradient-17);}.cls-20{fill:url(#linear-gradient-18);}.cls-21{fill:url(#linear-gradient-19);}.cls-22{fill:url(#linear-gradient-20);}.cls-23{fill:url(#linear-gradient-21);}.cls-24{fill:url(#linear-gradient-22);}.cls-25{fill:url(#linear-gradient-23);}.cls-26{fill:url(#linear-gradient-24);}.cls-27{fill:url(#linear-gradient-25);}.cls-28{fill:url(#linear-gradient-26);}.cls-29{fill:url(#linear-gradient-27);}.cls-30{fill:url(#linear-gradient-28);}</style><linearGradient id="linear-gradient" x1="322.55" y1="732.73" x2="243.02" y2="901.85" gradientUnits="userSpaceOnUse"><stop offset="0" stop-color="#ffe884"/><stop offset="0" stop-color="#f1c26b"/><stop offset="0.3" stop-color="#fadd63"/><stop offset="0.64" stop-color="#a47308"/><stop offset="1" stop-color="#ffd956"/></linearGradient><linearGradient id="linear-gradient-2" x1="285.89" y1="715.46" x2="206.35" y2="884.58" xlink:href="#linear-gradient"/><linearGradient id="linear-gradient-3" x1="278.82" y1="699.86" x2="194.26" y2="899.12" xlink:href="#linear-gradient"/><linearGradient id="linear-gradient-4" x1="332.61" y1="722.69" x2="248.05" y2="921.95" xlink:href="#linear-gradient"/><linearGradient id="linear-gradient-5" x1="305.71" y1="711.28" x2="221.15" y2="910.53" xlink:href="#linear-gradient"/><linearGradient id="linear-gradient-6" x1="259.25" y1="691.56" x2="174.69" y2="890.82" xlink:href="#linear-gradient"/><linearGradient id="linear-gradient-7" x1="352.18" y1="731" x2="267.62" y2="930.25" xlink:href="#linear-gradient"/><linearGradient id="linear-gradient-8" x1="1286.7" y1="729" x2="1207.16" y2="898.11" xlink:href="#linear-gradient"/><linearGradient id="linear-gradient-9" x1="1250.03" y1="711.73" x2="1170.5" y2="880.85" xlink:href="#linear-gradient"/><linearGradient id="linear-gradient-10" x1="1242.96" y1="696.13" x2="1158.4" y2="895.39" xlink:href="#linear-gradient"/><linearGradient id="linear-gradient-11" x1="1296.76" y1="718.96" x2="1212.2" y2="918.22" xlink:href="#linear-gradient"/><linearGradient id="linear-gradient-12" x1="1269.86" y1="707.55" x2="1185.3" y2="906.8" xlink:href="#linear-gradient"/><linearGradient id="linear-gradient-13" x1="1223.4" y1="687.83" x2="1138.84" y2="887.09" xlink:href="#linear-gradient"/><linearGradient id="linear-gradient-14" x1="1316.33" y1="727.27" x2="1231.77" y2="926.52" xlink:href="#linear-gradient"/><linearGradient id="linear-gradient-15" x1="521.4" y1="119.54" x2="444.94" y2="309.31" xlink:href="#linear-gradient"/><linearGradient id="linear-gradient-16" x1="488.42" y1="106.25" x2="411.96" y2="296.02" xlink:href="#linear-gradient"/><linearGradient id="linear-gradient-17" x1="477.79" y1="101.97" x2="401.33" y2="291.74" xlink:href="#linear-gradient"/><linearGradient id="linear-gradient-18" x1="532.03" y1="123.82" x2="455.57" y2="313.59" xlink:href="#linear-gradient"/><linearGradient id="linear-gradient-19" x1="504.91" y1="112.9" x2="428.45" y2="302.66" xlink:href="#linear-gradient"/><linearGradient id="linear-gradient-20" x1="457.74" y1="93.89" x2="381.28" y2="283.66" xlink:href="#linear-gradient"/><linearGradient id="linear-gradient-21" x1="552.09" y1="131.91" x2="475.63" y2="321.67" xlink:href="#linear-gradient"/><linearGradient id="linear-gradient-22" x1="1481.4" y1="119.54" x2="1404.94" y2="309.31" xlink:href="#linear-gradient"/><linearGradient id="linear-gradient-23" x1="1448.42" y1="106.25" x2="1371.96" y2="296.02" xlink:href="#linear-gradient"/><linearGradient id="linear-gradient-24" x1="1437.79" y1="101.97" x2="1361.33" y2="291.74" xlink:href="#linear-gradient"/><linearGradient id="linear-gradient-25" x1="1492.03" y1="123.82" x2="1415.57" y2="313.59" xlink:href="#linear-gradient"/><linearGradient id="linear-gradient-26" x1="1464.91" y1="112.9" x2="1388.45" y2="302.66" xlink:href="#linear-gradient"/><linearGradient id="linear-gradient-27" x1="1417.74" y1="93.89" x2="1341.28" y2="283.66" xlink:href="#linear-gradient"/><linearGradient id="linear-gradient-28" x1="1512.09" y1="131.91" x2="1435.63" y2="321.67" xlink:href="#linear-gradient"/></defs><g id="Layer_3" data-name="Layer 3"><rect class="cls-1" y="540" width="960" height="540"/><g id="Horizontal"><path class="cls-2" d="M311.8,846.8a2,2,0,0,0-2,2v9.7a5.6,5.6,0,0,1-2.3,4.5L267,892.2a5.6,5.6,0,0,1-6.5,0L220.1,863a5.5,5.5,0,0,1-2.2-4.5v-9.7a2,2,0,0,0-2-2H202.1a2,2,0,0,0-2,2v16.8a5.3,5.3,0,0,0,2.3,4.5l58,43.1a5.4,5.4,0,0,0,6.6,0l58.3-43.1a5.5,5.5,0,0,0,2.2-4.5V848.8a2,2,0,0,0-2-2Z"/><path class="cls-3" d="M215.9,773.2a2,2,0,0,0,2-2v-9.7a5.3,5.3,0,0,1,2.3-4.5l40.5-29.2a5.6,5.6,0,0,1,6.5,0L307.5,757a5.6,5.6,0,0,1,2.3,4.5v9.7a2,2,0,0,0,2,2h13.7a2,2,0,0,0,2-2V754.4a5.5,5.5,0,0,0-2.2-4.5l-58.1-43.1a5.4,5.4,0,0,0-6.6,0l-58.2,43.1a5.3,5.3,0,0,0-2.3,4.5v16.8a2,2,0,0,0,2,2Z"/><rect class="cls-4" x="227.5" y="773.2" width="17.7" height="53.22" rx="3"/><rect class="cls-5" x="282.4" y="793.6" width="17.7" height="53.22" rx="3"/><rect class="cls-6" x="255" y="756.8" width="17.7" height="106.45" rx="3"/><rect class="cls-7" x="200.1" y="783.4" width="17.7" height="53.22" rx="3"/><rect class="cls-8" x="309.8" y="783.4" width="17.7" height="53.22" rx="3"/><path class="cls-9" d="M396.5,777.6a63.8,63.8,0,0,1,10.9.9c1.2.2,1.5.9,1.5,1.9v6.7c0,1.3-.7,1.7-1.7,1.6-3.5-.3-6.6-.6-9.7-.6-13,0-16.9,4.7-16.9,22.3s3.8,22.3,16.9,22.3a85.1,85.1,0,0,0,9.7-.7c1-.1,1.7.4,1.7,1.7v6.7c0,1-.3,1.7-1.5,1.9a74.6,74.6,0,0,1-10.9.8c-20.2,0-28.2-9.2-28.2-32.7S376.3,777.6,396.5,777.6Z"/><path class="cls-9" d="M419.5,804.1v-5.9c0-1.3.4-1.7,1.3-1.9a91.5,91.5,0,0,1,15.1-1.4c13.3,0,19.2,4.8,19.2,18v27.6a1.4,1.4,0,0,1-1.5,1.5h-7.1a1.4,1.4,0,0,1-1.5-1.5v-2.4c-4.1,3.6-8.9,5-14.4,5-10,0-15.8-4.8-15.8-14.8v-.2c0-9.6,5.4-14,20.4-14h.4a74.4,74.4,0,0,1,8.4.5v-1.2c0-7.3-2-9.1-10.2-9.1a79.3,79.3,0,0,0-12.6,1.2A1.4,1.4,0,0,1,419.5,804.1ZM433,834.7a20.3,20.3,0,0,0,11-3.4V822a60.5,60.5,0,0,0-8.1-.5h-.4c-7.3,0-9.9,1.7-9.9,6.3v.2C425.6,832.6,428.1,834.7,433,834.7Z"/><path class="cls-9" d="M493.3,805a66.4,66.4,0,0,0-9.6-.8c-6.9,0-8.8,1.7-8.8,4.7s3.4,4.8,8.5,6l1.2.3c6.5,1.6,13.4,3.9,13.4,13.9s-5.3,14-18.9,14a62.3,62.3,0,0,1-13.4-1.4,1.5,1.5,0,0,1-1.3-1.6v-6.3c0-1.2.6-1.5,1.6-1.3a62.5,62.5,0,0,0,11.6,1.2c7,0,9.2-1.7,9.2-4.7s-3.9-4.4-9.2-5.8l-1.1-.3c-6.1-1.5-12.8-4.3-12.8-14.3s5.7-13.7,19.2-13.7a64.1,64.1,0,0,1,11,1,1.5,1.5,0,0,1,1.3,1.7v5.8C495.2,804.3,494.9,805.2,493.3,805Z"/><path class="cls-9" d="M534.5,840.5V814.2c0-7.4-1.7-9.7-6.6-9.7a20,20,0,0,0-10.9,3.6v32.5a1.4,1.4,0,0,1-1.4,1.4h-8.3a1.4,1.4,0,0,1-1.4-1.4V778.4a1.4,1.4,0,0,1,1.5-1.5h8.1a1.4,1.4,0,0,1,1.5,1.5v21.2a23.1,23.1,0,0,1,14.2-4.7c10.1,0,14.4,5.5,14.4,16.4v29.2a1.4,1.4,0,0,1-1.5,1.5h-8A1.4,1.4,0,0,1,534.5,840.5Z"/><path class="cls-9" d="M570.7,840.5v-5.1a3.4,3.4,0,0,1,.6-2.1l19.2-32.5a97,97,0,0,1,7.7-11.6H573.9a1.4,1.4,0,0,1-1.5-1.5v-7.4a1.4,1.4,0,0,1,1.5-1.5h37a1.4,1.4,0,0,1,1.5,1.5v4.5a3.7,3.7,0,0,1-.6,2.2l-19.3,32.7a111.3,111.3,0,0,1-7.9,11.9h26.7a1.4,1.4,0,0,1,1.6,1.5v7.4a1.4,1.4,0,0,1-1.6,1.5h-39A1.4,1.4,0,0,1,570.7,840.5Z"/><path class="cls-9" d="M617.3,819c0-16.5,6.4-24.1,21.6-24.1s21.8,7.6,21.8,24.1-6.5,24.1-21.8,24.1S617.3,835.5,617.3,819Zm21.6,14.5c7.5,0,10.4-3.5,10.4-14.5s-2.9-14.5-10.4-14.5S628.7,808,628.7,819,631.5,833.5,638.9,833.5Z"/><path class="cls-9" d="M698.6,840.5V814.1c0-7.4-1.7-9.6-6.6-9.6a19.7,19.7,0,0,0-10.9,3.6v32.5a1.4,1.4,0,0,1-1.5,1.4h-8.2a1.4,1.4,0,0,1-1.5-1.4V797.5a1.4,1.4,0,0,1,1.6-1.5h7.2a1.4,1.4,0,0,1,1.5,1.5v2.6a23.2,23.2,0,0,1,15-5.2c10.2,0,14.5,5.5,14.5,16.4v29.2a1.4,1.4,0,0,1-1.5,1.5h-8.1A1.4,1.4,0,0,1,698.6,840.5Z"/><path class="cls-9" d="M739.9,794.9c14.1,0,20,7.6,20,26.1v.2a1.7,1.7,0,0,1-1.9,1.9H730.3c.6,8.4,4.4,10.5,12.8,10.5a59.1,59.1,0,0,0,11.7-1.3c1.1-.2,1.7.2,1.7,1.4V840a1.7,1.7,0,0,1-1.2,1.7,58.6,58.6,0,0,1-12.9,1.4c-16.4,0-23.5-7-23.5-24S725.5,794.9,739.9,794.9Zm9.3,20.5c-.5-8.3-3.2-11.1-9.2-11.1s-9.3,2.8-9.7,11.1Z"/></g></g><g id="Layer_4" data-name="Layer 4"><rect class="cls-9" x="960" y="540" width="960" height="540"/><g id="Horizontal-2" data-name="Horizontal"><path class="cls-10" d="M1275.9,843.1a1.9,1.9,0,0,0-2,1.9v9.8a5.3,5.3,0,0,1-2.3,4.5l-40.5,29.2a5.6,5.6,0,0,1-6.5,0l-40.3-29.2a5.6,5.6,0,0,1-2.3-4.5V845a1.9,1.9,0,0,0-2-1.9h-13.7a1.9,1.9,0,0,0-2,1.9v16.9a5.6,5.6,0,0,0,2.2,4.5l58.1,43.1a5.7,5.7,0,0,0,6.6,0l58.2-43.1a5.7,5.7,0,0,0,2.3-4.5V845a1.9,1.9,0,0,0-2-1.9Z"/><path class="cls-11" d="M1180,769.5a2,2,0,0,0,2-2v-9.8a5.9,5.9,0,0,1,2.3-4.5l40.5-29.1a5.6,5.6,0,0,1,6.5,0l40.3,29.1a5.6,5.6,0,0,1,2.3,4.5v9.8a2,2,0,0,0,2,2h13.8a2,2,0,0,0,2-2V750.6a5.5,5.5,0,0,0-2.3-4.4l-58-43.1a5.4,5.4,0,0,0-6.6,0l-58.3,43.1a5.4,5.4,0,0,0-2.2,4.4v16.9a2,2,0,0,0,2,2Z"/><rect class="cls-12" x="1191.7" y="769.5" width="17.7" height="53.22" rx="3"/><rect class="cls-13" x="1246.5" y="789.8" width="17.7" height="53.22" rx="3"/><rect class="cls-14" x="1219.1" y="753" width="17.7" height="106.45" rx="3"/><rect class="cls-15" x="1164.3" y="779.7" width="17.7" height="53.22" rx="3"/><rect class="cls-16" x="1273.9" y="779.7" width="17.7" height="53.22" rx="3"/><path class="cls-1" d="M1360.7,773.9a64.6,64.6,0,0,1,10.9.9c1.1.1,1.4.8,1.4,1.9v6.7c0,1.2-.7,1.7-1.6,1.6a86.8,86.8,0,0,0-9.8-.7c-12.9,0-16.8,4.7-16.8,22.4s3.8,22.3,16.8,22.3a86.8,86.8,0,0,0,9.8-.7c.9-.1,1.6.4,1.6,1.6v6.7c0,1.1-.3,1.8-1.4,1.9a64.6,64.6,0,0,1-10.9.9c-20.2,0-28.3-9.2-28.3-32.7S1340.5,773.9,1360.7,773.9Z"/><path class="cls-1" d="M1383.6,800.3v-5.8c0-1.4.4-1.7,1.4-1.9a89.3,89.3,0,0,1,15-1.5c13.3,0,19.3,4.8,19.3,18v27.6a1.5,1.5,0,0,1-1.6,1.6h-7a1.5,1.5,0,0,1-1.6-1.6v-2.4c-4.1,3.7-8.9,5.1-14.3,5.1-10.1,0-15.8-4.9-15.8-14.8v-.2c0-9.6,5.3-14,20.4-14h.3a76.2,76.2,0,0,1,8.5.5v-1.3c0-7.3-2-9-10.3-9a78,78,0,0,0-12.5,1.2C1384.3,801.9,1383.6,801.4,1383.6,800.3Zm13.6,30.7a20.7,20.7,0,0,0,11-3.5v-9.3c-3.1-.3-5.8-.4-8.2-.4h-.4c-7.2,0-9.8,1.7-9.8,6.3v.2C1389.8,828.9,1392.3,831,1397.2,831Z"/><path class="cls-1" d="M1457.5,801.3a66.9,66.9,0,0,0-9.7-.9c-6.9,0-8.8,1.7-8.8,4.7s3.4,4.9,8.5,6.1l1.3.2c6.5,1.7,13.4,4,13.4,13.9s-5.4,14.1-19,14.1a70.9,70.9,0,0,1-13.4-1.4c-1-.2-1.2-.9-1.2-1.7v-6.2c0-1.2.5-1.5,1.6-1.3a71.3,71.3,0,0,0,11.6,1.1c7,0,9.2-1.6,9.2-4.7s-4-4.4-9.2-5.7l-1.2-.3c-6.1-1.5-12.7-4.3-12.7-14.4s5.6-13.7,19.1-13.7a57.8,57.8,0,0,1,11.1,1.1,1.5,1.5,0,0,1,1.2,1.7v5.8C1459.3,800.6,1459,801.5,1457.5,801.3Z"/><path class="cls-1" d="M1498.7,836.7V810.5c0-7.4-1.8-9.7-6.6-9.7a19.5,19.5,0,0,0-11,3.6v32.4a1.3,1.3,0,0,1-1.4,1.5h-8.2a1.4,1.4,0,0,1-1.5-1.5V774.7a1.5,1.5,0,0,1,1.6-1.6h8a1.4,1.4,0,0,1,1.5,1.6v21.1a23.9,23.9,0,0,1,14.2-4.7c10.2,0,14.5,5.6,14.5,16.5v29.1a1.5,1.5,0,0,1-1.6,1.6h-8A1.4,1.4,0,0,1,1498.7,836.7Z"/><path class="cls-1" d="M1534.9,836.7v-5a4.7,4.7,0,0,1,.5-2.2l19.2-32.4a81.3,81.3,0,0,1,7.8-11.6H1538a1.4,1.4,0,0,1-1.5-1.5v-7.4a1.4,1.4,0,0,1,1.5-1.6h37a1.4,1.4,0,0,1,1.5,1.6v4.5a4.7,4.7,0,0,1-.5,2.2l-19.4,32.6a105.5,105.5,0,0,1-7.8,11.9h26.7a1.4,1.4,0,0,1,1.5,1.6v7.3a1.4,1.4,0,0,1-1.5,1.6h-39.1A1.4,1.4,0,0,1,1534.9,836.7Z"/><path class="cls-1" d="M1581.4,815.3c0-16.5,6.4-24.2,21.7-24.2s21.7,7.7,21.7,24.2-6.4,24.1-21.7,24.1S1581.4,831.7,1581.4,815.3Zm21.7,14.4c7.4,0,10.3-3.4,10.3-14.4s-2.9-14.5-10.3-14.5-10.3,3.5-10.3,14.5S1595.7,829.7,1603.1,829.7Z"/><path class="cls-1" d="M1662.7,836.7V810.4c0-7.4-1.7-9.6-6.6-9.6a19.4,19.4,0,0,0-10.9,3.6v32.4a1.4,1.4,0,0,1-1.4,1.5h-8.3a1.4,1.4,0,0,1-1.4-1.5v-43a1.4,1.4,0,0,1,1.5-1.5h7.2a1.4,1.4,0,0,1,1.5,1.5v2.6a23.4,23.4,0,0,1,15.1-5.3c10.1,0,14.4,5.6,14.4,16.5v29.1a1.4,1.4,0,0,1-1.5,1.6h-8A1.5,1.5,0,0,1,1662.7,836.7Z"/><path class="cls-1" d="M1704,791.1c14.2,0,20,7.7,20,26.2v.2c0,1.3-.5,1.9-1.9,1.9h-27.7c.6,8.3,4.4,10.4,12.9,10.4a59.6,59.6,0,0,0,11.7-1.2c1-.2,1.7.2,1.7,1.3v6.3a1.7,1.7,0,0,1-1.3,1.8,64.5,64.5,0,0,1-12.9,1.4c-16.4,0-23.5-7-23.5-24S1689.6,791.1,1704,791.1Zm9.3,20.5c-.5-8.2-3.2-11-9.2-11s-9.3,2.8-9.7,11Z"/></g></g><g id="Layer_5" data-name="Layer 5"><g id="Vertical"><rect class="cls-9" width="960" height="540"/><path class="cls-17" d="M514.2,245.6a2,2,0,0,0-2,2v9.7a5.3,5.3,0,0,1-2.3,4.5L469.4,291a5.6,5.6,0,0,1-6.5,0l-40.3-29.2a5.6,5.6,0,0,1-2.3-4.5v-9.7a2,2,0,0,0-2-2H404.6a2,2,0,0,0-2,2v16.8a5.5,5.5,0,0,0,2.2,4.5L462.9,312a5.7,5.7,0,0,0,6.6,0l58.2-43.1a5.6,5.6,0,0,0,2.3-4.5V247.6a2,2,0,0,0-2-2Z"/><path class="cls-18" d="M418.3,172a2,2,0,0,0,2-2v-9.7a5.6,5.6,0,0,1,2.3-4.5l40.5-29.2a5.6,5.6,0,0,1,6.5,0l40.3,29.2a5.3,5.3,0,0,1,2.3,4.5V170a2,2,0,0,0,2,2H528a2,2,0,0,0,2-2V153.1a5.5,5.5,0,0,0-2.3-4.4l-58-43.1a5.4,5.4,0,0,0-6.6,0l-58.3,43.1a5.4,5.4,0,0,0-2.2,4.4V170a2,2,0,0,0,2,2Z"/><rect class="cls-19" x="430" y="172" width="17.7" height="53.22" rx="3"/><rect class="cls-20" x="484.8" y="192.4" width="17.7" height="53.22" rx="3"/><rect class="cls-21" x="457.4" y="155.6" width="17.7" height="106.45" rx="3"/><rect class="cls-22" x="402.6" y="182.2" width="17.7" height="53.22" rx="3"/><rect class="cls-23" x="512.2" y="182.2" width="17.7" height="53.22" rx="3"/><path class="cls-1" d="M331.4,360.3a54.7,54.7,0,0,1,9.3.8c1,.1,1.3.7,1.3,1.6v5.8a1.3,1.3,0,0,1-1.4,1.4,63.8,63.8,0,0,0-8.4-.6c-11.1,0-14.5,4-14.5,19.2s3.3,19.1,14.5,19.1c2.7,0,5.3-.2,8.4-.5.8-.1,1.4.3,1.4,1.4v5.7a1.5,1.5,0,0,1-1.3,1.7,65.9,65.9,0,0,1-9.3.7c-17.4,0-24.3-7.9-24.3-28.1S314,360.3,331.4,360.3Z"/><path class="cls-1" d="M351.1,383v-5c0-1.1.3-1.5,1.2-1.6a75.7,75.7,0,0,1,12.9-1.3c11.4,0,16.5,4.1,16.5,15.5v23.7a1.2,1.2,0,0,1-1.3,1.3h-6.1a1.2,1.2,0,0,1-1.3-1.3v-2.1a17.4,17.4,0,0,1-12.3,4.4c-8.7,0-13.6-4.2-13.6-12.7v-.2c0-8.2,4.6-12,17.5-12h.3a56.4,56.4,0,0,1,7.3.4V391c0-6.2-1.8-7.7-8.8-7.7a69.7,69.7,0,0,0-10.8,1A1.2,1.2,0,0,1,351.1,383Zm11.6,26.4a17.7,17.7,0,0,0,9.5-3v-8a62.8,62.8,0,0,0-7-.4h-.4c-6.2,0-8.4,1.5-8.4,5.4v.2C356.4,407.6,358.5,409.4,362.7,409.4Z"/><path class="cls-1" d="M414.6,383.9a51,51,0,0,0-8.4-.8c-5.9,0-7.5,1.5-7.5,4s2.9,4.2,7.3,5.2l1.1.3c5.6,1.4,11.5,3.4,11.5,11.9s-4.6,12.1-16.3,12.1a56.9,56.9,0,0,1-11.5-1.2,1.3,1.3,0,0,1-1.1-1.4v-5.4c0-1,.5-1.3,1.4-1.1a62.7,62.7,0,0,0,10,1c6,0,7.9-1.4,7.9-4.1s-3.4-3.8-7.9-4.9l-1-.3c-5.3-1.3-11-3.7-11-12.3s4.9-11.8,16.5-11.8a55,55,0,0,1,9.4.9,1.3,1.3,0,0,1,1.1,1.5v5C416.1,383.3,415.9,384,414.6,383.9Z"/><path class="cls-1" d="M449.9,414.3V391.8c0-6.4-1.4-8.4-5.6-8.4a17.3,17.3,0,0,0-9.4,3.1v27.9a1.2,1.2,0,0,1-1.3,1.2h-7a1.2,1.2,0,0,1-1.3-1.2V361a1.2,1.2,0,0,1,1.3-1.3h7a1.2,1.2,0,0,1,1.3,1.3v18.2a20.1,20.1,0,0,1,12.2-4.1c8.7,0,12.4,4.8,12.4,14.2v25a1.2,1.2,0,0,1-1.3,1.3h-6.9A1.2,1.2,0,0,1,449.9,414.3Z"/><path class="cls-1" d="M481,414.3v-4.4a3.5,3.5,0,0,1,.5-1.8L498,380.2a72,72,0,0,1,6.7-9.9H483.8a1.2,1.2,0,0,1-1.4-1.3v-6.4a1.2,1.2,0,0,1,1.4-1.3h31.7a1.2,1.2,0,0,1,1.3,1.3v3.9a2.7,2.7,0,0,1-.5,1.9l-16.6,28a85.8,85.8,0,0,1-6.7,10.3h22.9c.9,0,1.3.4,1.3,1.3v6.3a1.2,1.2,0,0,1-1.3,1.3H482.4A1.2,1.2,0,0,1,481,414.3Z"/><path class="cls-1" d="M521,395.9c0-14.2,5.5-20.8,18.6-20.8s18.7,6.6,18.7,20.8-5.5,20.7-18.7,20.7S521,410,521,395.9Zm18.6,12.4c6.5,0,8.9-3,8.9-12.4s-2.4-12.5-8.9-12.5-8.8,3-8.8,12.5S533.3,408.3,539.6,408.3Z"/><path class="cls-1" d="M590.9,414.3V391.7c0-6.4-1.5-8.3-5.7-8.3a17.3,17.3,0,0,0-9.4,3.1v27.9a1.2,1.2,0,0,1-1.2,1.2h-7.1a1.2,1.2,0,0,1-1.2-1.2v-37a1.2,1.2,0,0,1,1.3-1.3h6.2a1.2,1.2,0,0,1,1.3,1.3v2.3a19.5,19.5,0,0,1,12.9-4.6c8.7,0,12.4,4.8,12.4,14.2v25a1.2,1.2,0,0,1-1.3,1.3h-6.9A1.2,1.2,0,0,1,590.9,414.3Z"/><path class="cls-1" d="M626.4,375.1c12.1,0,17.2,6.6,17.2,22.5v.2c0,1.1-.5,1.6-1.7,1.6H618.1c.5,7.2,3.8,9,11.1,9a49.4,49.4,0,0,0,10-1.1,1.1,1.1,0,0,1,1.5,1.2v5.4a1.5,1.5,0,0,1-1.1,1.5,54.7,54.7,0,0,1-11.1,1.2c-14.1,0-20.2-6-20.2-20.6S614,375.1,626.4,375.1Zm7.9,17.6c-.4-7-2.7-9.4-7.9-9.4s-7.9,2.4-8.3,9.4Z"/></g></g><g id="Layer_6" data-name="Layer 6"><g id="Vertical-2" data-name="Vertical"><rect class="cls-1" x="960" width="960" height="540"/><path class="cls-24" d="M1474.2,245.6a2,2,0,0,0-2,2v9.7a5.3,5.3,0,0,1-2.3,4.5L1429.4,291a5.6,5.6,0,0,1-6.5,0l-40.3-29.2a5.6,5.6,0,0,1-2.3-4.5v-9.7a2,2,0,0,0-2-2h-13.7a2,2,0,0,0-2,2v16.8a5.5,5.5,0,0,0,2.2,4.5l58.1,43.1a5.7,5.7,0,0,0,6.6,0l58.2-43.1a5.6,5.6,0,0,0,2.3-4.5V247.6a2,2,0,0,0-2-2Z"/><path class="cls-25" d="M1378.3,172a2,2,0,0,0,2-2v-9.7a5.6,5.6,0,0,1,2.3-4.5l40.5-29.2a5.6,5.6,0,0,1,6.5,0l40.3,29.2a5.3,5.3,0,0,1,2.3,4.5V170a2,2,0,0,0,2,2H1488a2,2,0,0,0,2-2V153.1a5.5,5.5,0,0,0-2.3-4.4l-58-43.1a5.4,5.4,0,0,0-6.6,0l-58.3,43.1a5.4,5.4,0,0,0-2.2,4.4V170a2,2,0,0,0,2,2Z"/><rect class="cls-26" x="1390" y="172" width="17.7" height="53.22" rx="3"/><rect class="cls-27" x="1444.8" y="192.4" width="17.7" height="53.22" rx="3"/><rect class="cls-28" x="1417.4" y="155.6" width="17.7" height="106.45" rx="3"/><rect class="cls-29" x="1362.6" y="182.2" width="17.7" height="53.22" rx="3"/><rect class="cls-30" x="1472.2" y="182.2" width="17.7" height="53.22" rx="3"/><path class="cls-9" d="M1291.4,360.3a54.7,54.7,0,0,1,9.3.8c1,.1,1.3.7,1.3,1.6v5.8a1.3,1.3,0,0,1-1.4,1.4,63.8,63.8,0,0,0-8.4-.6c-11.1,0-14.5,4-14.5,19.2s3.3,19.1,14.5,19.1c2.7,0,5.3-.2,8.4-.5.8-.1,1.4.3,1.4,1.4v5.7a1.5,1.5,0,0,1-1.3,1.7,65.9,65.9,0,0,1-9.3.7c-17.4,0-24.3-7.9-24.3-28.1S1274,360.3,1291.4,360.3Z"/><path class="cls-9" d="M1311.1,383v-5c0-1.1.3-1.5,1.2-1.6a75.7,75.7,0,0,1,12.9-1.3c11.4,0,16.5,4.1,16.5,15.5v23.7a1.2,1.2,0,0,1-1.3,1.3h-6.1a1.2,1.2,0,0,1-1.3-1.3v-2.1a17.4,17.4,0,0,1-12.3,4.4c-8.7,0-13.6-4.2-13.6-12.7v-.2c0-8.2,4.6-12,17.5-12h.3a56.4,56.4,0,0,1,7.3.4V391c0-6.2-1.8-7.7-8.8-7.7a69.7,69.7,0,0,0-10.8,1A1.2,1.2,0,0,1,1311.1,383Zm11.6,26.4a17.7,17.7,0,0,0,9.5-3v-8a62.8,62.8,0,0,0-7-.4h-.4c-6.2,0-8.4,1.5-8.4,5.4v.2C1316.4,407.6,1318.5,409.4,1322.7,409.4Z"/><path class="cls-9" d="M1374.6,383.9a51,51,0,0,0-8.4-.8c-5.9,0-7.5,1.5-7.5,4s2.9,4.2,7.3,5.2l1.1.3c5.6,1.4,11.5,3.4,11.5,11.9s-4.6,12.1-16.3,12.1a56.9,56.9,0,0,1-11.5-1.2,1.3,1.3,0,0,1-1.1-1.4v-5.4c0-1,.5-1.3,1.4-1.1a62.7,62.7,0,0,0,10,1c6,0,7.9-1.4,7.9-4.1s-3.4-3.8-7.9-4.9l-1-.3c-5.3-1.3-11-3.7-11-12.3s4.9-11.8,16.5-11.8a55,55,0,0,1,9.4.9,1.3,1.3,0,0,1,1.1,1.5v5C1376.1,383.3,1375.9,384,1374.6,383.9Z"/><path class="cls-9" d="M1409.9,414.3V391.8c0-6.4-1.4-8.4-5.6-8.4a17.3,17.3,0,0,0-9.4,3.1v27.9a1.2,1.2,0,0,1-1.3,1.2h-7a1.2,1.2,0,0,1-1.3-1.2V361a1.2,1.2,0,0,1,1.3-1.3h7a1.2,1.2,0,0,1,1.3,1.3v18.2a20.1,20.1,0,0,1,12.2-4.1c8.7,0,12.4,4.8,12.4,14.2v25a1.2,1.2,0,0,1-1.3,1.3h-6.9A1.2,1.2,0,0,1,1409.9,414.3Z"/><path class="cls-9" d="M1441,414.3v-4.4a3.5,3.5,0,0,1,.5-1.8l16.5-27.9a72,72,0,0,1,6.7-9.9h-20.9a1.2,1.2,0,0,1-1.4-1.3v-6.4a1.2,1.2,0,0,1,1.4-1.3h31.7a1.2,1.2,0,0,1,1.3,1.3v3.9a2.7,2.7,0,0,1-.5,1.9l-16.6,28a85.8,85.8,0,0,1-6.7,10.3h22.9c.9,0,1.3.4,1.3,1.3v6.3a1.2,1.2,0,0,1-1.3,1.3h-33.5A1.2,1.2,0,0,1,1441,414.3Z"/><path class="cls-9" d="M1481,395.9c0-14.2,5.5-20.8,18.6-20.8s18.7,6.6,18.7,20.8-5.5,20.7-18.7,20.7S1481,410,1481,395.9Zm18.6,12.4c6.5,0,8.9-3,8.9-12.4s-2.4-12.5-8.9-12.5-8.8,3-8.8,12.5S1493.3,408.3,1499.6,408.3Z"/><path class="cls-9" d="M1550.9,414.3V391.7c0-6.4-1.5-8.3-5.7-8.3a17.3,17.3,0,0,0-9.4,3.1v27.9a1.2,1.2,0,0,1-1.2,1.2h-7.1a1.2,1.2,0,0,1-1.2-1.2v-37a1.2,1.2,0,0,1,1.3-1.3h6.2a1.2,1.2,0,0,1,1.3,1.3v2.3a19.5,19.5,0,0,1,12.9-4.6c8.7,0,12.4,4.8,12.4,14.2v25a1.2,1.2,0,0,1-1.3,1.3h-6.9A1.2,1.2,0,0,1,1550.9,414.3Z"/><path class="cls-9" d="M1586.4,375.1c12.1,0,17.2,6.6,17.2,22.5v.2c0,1.1-.5,1.6-1.7,1.6h-23.8c.5,7.2,3.8,9,11.1,9a49.4,49.4,0,0,0,10-1.1,1.1,1.1,0,0,1,1.5,1.2v5.4a1.5,1.5,0,0,1-1.1,1.5,54.7,54.7,0,0,1-11.1,1.2c-14.1,0-20.2-6-20.2-20.6S1574,375.1,1586.4,375.1Zm7.9,17.6c-.4-7-2.7-9.4-7.9-9.4s-7.9,2.4-8.3,9.4Z"/></g></g></svg>